<svg width="17" height="8" viewBox="0 0 17 8" fill="none" xmlns="http://www.w3.org/2000/svg">
<path d="M15.82 0.179359L8.49925 6.55527L1.17848 0.179359C1.04768 0.0652126 0.872097 0.00130859 0.689257 0.00130859C0.506418 0.00130859 0.330832 0.0652126 0.200034 0.179359C0.136702 0.234801 0.0863884 0.300975 0.0520402 0.374008C0.0176921 0.447041 0 0.525463 0 0.604682C0 0.6839 0.0176921 0.762322 0.0520402 0.835355C0.0863884 0.908388 0.136702 0.974563 0.200034 1.03L7.98806 7.81423C8.12482 7.93334 8.30826 8 8.49925 8C8.69024 8 8.87368 7.93334 9.01044 7.81423L16.7985 1.03131C16.8622 0.97583 16.9129 0.909493 16.9476 0.836218C16.9822 0.762943 17 0.684216 17 0.604682C17 0.525148 16.9822 0.44642 16.9476 0.373145C16.9129 0.29987 16.8622 0.233533 16.7985 0.17805C16.6677 0.0639034 16.4921 0 16.3092 0C16.1264 0 15.9508 0.0639034 15.82 0.17805V0.179359Z" fill="white"/>
</svg>
