<svg width="39" height="39" viewBox="0 0 39 39" fill="none" xmlns="http://www.w3.org/2000/svg">
<path d="M19.5 0C14.2082 0 13.5428 0.024375 11.4636 0.117C9.38438 0.2145 7.96819 0.541125 6.7275 1.02375C5.4261 1.51325 4.24732 2.28108 3.27356 3.27356C2.28169 4.24782 1.51395 5.42646 1.02375 6.7275C0.541125 7.96575 0.212063 9.38437 0.117 11.4562C0.024375 13.5403 0 14.2033 0 19.5024C0 24.7967 0.024375 25.4597 0.117 27.5389C0.2145 29.6156 0.541125 31.0318 1.02375 32.2725C1.52344 33.5546 2.18888 34.6417 3.27356 35.7264C4.35581 36.8111 5.44294 37.479 6.72506 37.9762C7.96819 38.4589 9.38194 38.7879 11.4587 38.883C13.5403 38.9756 14.2033 39 19.5 39C24.7967 39 25.4573 38.9756 27.5389 38.883C29.6132 38.7855 31.0342 38.4589 32.2749 37.9762C33.5755 37.4865 34.7534 36.7187 35.7264 35.7264C36.8111 34.6417 37.4766 33.5546 37.9762 32.2725C38.4564 31.0318 38.7855 29.6156 38.883 27.5389C38.9756 25.4597 39 24.7967 39 19.5C39 14.2033 38.9756 13.5403 38.883 11.4587C38.7855 9.38438 38.4564 7.96575 37.9762 6.7275C37.4861 5.42642 36.7184 4.24777 35.7264 3.27356C34.753 2.28071 33.5741 1.51282 32.2725 1.02375C31.0294 0.541125 29.6108 0.212063 27.5364 0.117C25.4548 0.024375 24.7943 0 19.4951 0H19.5024H19.5ZM17.7523 3.51488H19.5024C24.7089 3.51488 25.3256 3.53194 27.3804 3.627C29.2817 3.71231 30.3152 4.03163 31.0026 4.29731C31.9117 4.65075 32.5626 5.07487 33.2451 5.75737C33.9276 6.43987 34.3493 7.08825 34.7027 7.99988C34.9708 8.68481 35.2877 9.71831 35.373 11.6196C35.4681 13.6744 35.4876 14.2911 35.4876 19.4951C35.4876 24.6992 35.4681 25.3183 35.373 27.3731C35.2877 29.2744 34.9684 30.3054 34.7027 30.9928C34.3901 31.8395 33.8911 32.6051 33.2426 33.2329C32.5601 33.9154 31.9118 34.3371 31.0001 34.6905C30.3176 34.9586 29.2841 35.2755 27.3804 35.3633C25.3256 35.4559 24.7089 35.4778 19.5024 35.4778C14.2959 35.4778 13.6768 35.4559 11.622 35.3633C9.72075 35.2755 8.68969 34.9586 8.00231 34.6905C7.15528 34.3783 6.38899 33.8802 5.75981 33.2329C5.11083 32.6041 4.61108 31.8378 4.29731 30.9904C4.03163 30.3054 3.71231 29.2719 3.627 27.3707C3.53438 25.3159 3.51488 24.6992 3.51488 19.4902C3.51488 14.2838 3.53438 13.6695 3.627 11.6147C3.71475 9.71344 4.03163 8.67994 4.29975 7.99256C4.65319 7.08338 5.07731 6.43256 5.75981 5.75006C6.44231 5.06756 7.09069 4.64588 8.00231 4.29244C8.68969 4.02431 9.72075 3.70744 11.622 3.61969C13.4209 3.53681 14.118 3.51244 17.7523 3.51V3.51488ZM29.9106 6.75187C29.6033 6.75187 29.299 6.8124 29.0151 6.93C28.7312 7.04759 28.4732 7.21996 28.2559 7.43725C28.0386 7.65453 27.8663 7.91249 27.7487 8.1964C27.6311 8.4803 27.5706 8.78458 27.5706 9.09188C27.5706 9.39917 27.6311 9.70345 27.7487 9.98735C27.8663 10.2713 28.0386 10.5292 28.2559 10.7465C28.4732 10.9638 28.7312 11.1362 29.0151 11.2538C29.299 11.3713 29.6033 11.4319 29.9106 11.4319C30.5312 11.4319 31.1264 11.1853 31.5652 10.7465C32.004 10.3077 32.2506 9.71248 32.2506 9.09188C32.2506 8.47127 32.004 7.87608 31.5652 7.43725C31.1264 6.99841 30.5312 6.75187 29.9106 6.75187ZM19.5024 9.48675C18.1742 9.46603 16.8551 9.70975 15.6219 10.2037C14.3887 10.6977 13.2661 11.432 12.3195 12.364C11.3729 13.296 10.6211 14.407 10.1079 15.6323C9.59478 16.8576 9.33051 18.1728 9.33051 19.5012C9.33051 20.8296 9.59478 22.1448 10.1079 23.3701C10.6211 24.5954 11.3729 25.7064 12.3195 26.6384C13.2661 27.5704 14.3887 28.3047 15.6219 28.7987C16.8551 29.2927 18.1742 29.5364 19.5024 29.5157C22.1314 29.4747 24.6388 28.4015 26.4834 26.5279C28.328 24.6543 29.3619 22.1305 29.3619 19.5012C29.3619 16.872 28.328 14.3481 26.4834 12.4745C24.6388 10.6009 22.1314 9.52777 19.5024 9.48675ZM19.5024 12.9992C21.2266 12.9992 22.8801 13.6841 24.0992 14.9032C25.3183 16.1224 26.0033 17.7759 26.0033 19.5C26.0033 21.2241 25.3183 22.8776 24.0992 24.0968C22.8801 25.3159 21.2266 26.0008 19.5024 26.0008C17.7783 26.0008 16.1248 25.3159 14.9057 24.0968C13.6865 22.8776 13.0016 21.2241 13.0016 19.5C13.0016 17.7759 13.6865 16.1224 14.9057 14.9032C16.1248 13.6841 17.7783 12.9992 19.5024 12.9992Z" fill="white"/>
</svg>
