<svg width="22" height="22" viewBox="0 0 22 22" fill="none" xmlns="http://www.w3.org/2000/svg">
<path fill-rule="evenodd" clip-rule="evenodd" d="M11.7187 1.68427C12.8503 0.591323 14.3659 -0.0134437 15.9391 0.000226815C17.5123 0.0138973 19.0172 0.644911 20.1296 1.75736C21.2421 2.86981 21.8731 4.37468 21.8868 5.94786C21.9004 7.52104 21.2957 9.03666 20.2027 10.1683L20.1905 10.1807L17.1907 13.1805C16.5824 13.789 15.8504 14.2596 15.0443 14.5603C14.2382 14.861 13.3768 14.9848 12.5186 14.9233C11.6605 14.8619 10.8255 14.6166 10.0705 14.2041C9.31548 13.7916 8.658 13.2215 8.14265 12.5325C7.81185 12.0903 7.90219 11.4636 8.34444 11.1328C8.78669 10.802 9.41338 10.8923 9.74418 11.3346C10.0877 11.7939 10.5261 12.1739 11.0294 12.4489C11.5328 12.7239 12.0894 12.8875 12.6615 12.9284C13.2336 12.9694 13.8079 12.8869 14.3453 12.6864C14.8827 12.4859 15.3707 12.1722 15.7762 11.7666L15.7763 11.7665L18.7698 8.77294C19.4949 8.01917 19.8959 7.01129 19.8868 5.96524C19.8777 4.91646 19.457 3.91321 18.7154 3.17157C17.9738 2.42994 16.9705 2.00927 15.9217 2.00015C14.8752 1.99106 13.8669 2.39246 13.1131 3.1181L11.3985 4.82272C11.0068 5.21211 10.3736 5.21026 9.98425 4.8186C9.59487 4.42694 9.59672 3.79378 9.98838 3.40439L11.7084 1.69439L11.7187 1.68427Z" fill="#FE0000"/>
<path fill-rule="evenodd" clip-rule="evenodd" d="M6.84271 7.30686C7.64882 7.00616 8.51017 6.88234 9.36834 6.9438C10.2265 7.00526 11.0614 7.25056 11.8165 7.66307C12.5715 8.07558 13.229 8.64564 13.7443 9.3346C14.0751 9.77685 13.9848 10.4035 13.5425 10.7343C13.1003 11.0651 12.4736 10.9748 12.1428 10.5326C11.7992 10.0733 11.3609 9.69321 10.8576 9.4182C10.3542 9.1432 9.79759 8.97966 9.22547 8.93869C8.65336 8.89771 8.07912 8.98026 7.54172 9.18073C7.00431 9.3812 6.5163 9.6949 6.11079 10.1006L3.11715 13.0942C2.39211 13.848 1.99106 14.8558 2.00015 15.9019C2.00927 16.9507 2.42994 17.9539 3.17157 18.6956C3.91321 19.4372 4.91646 19.8579 5.96524 19.867C7.01129 19.8761 8.01915 19.475 8.77292 18.75L10.4765 17.0465C10.867 16.6559 11.5001 16.6559 11.8907 17.0465C12.2812 17.437 12.2812 18.0702 11.8907 18.4607L10.1807 20.1707L10.1683 20.1829C9.03666 21.2758 7.52104 21.8806 5.94786 21.8669C4.37468 21.8532 2.86981 21.2222 1.75736 20.1098C0.644911 18.9973 0.0138973 17.4925 0.000226815 15.9193C-0.0134437 14.3461 0.591322 12.8305 1.68427 11.6989L1.69645 11.6865L4.69632 8.6866C4.69637 8.68655 4.69628 8.68664 4.69632 8.6866C5.30456 8.07817 6.03666 7.60754 6.84271 7.30686Z" fill="#FE0000"/>
</svg>
