<svg width="35" height="39" viewBox="0 0 35 39" fill="none" xmlns="http://www.w3.org/2000/svg">
<path d="M17.5 0C22.1413 0 26.5925 1.83376 29.8744 5.09788C33.1563 8.36199 35 12.7891 35 17.4052C35 23.3501 31.7411 28.2158 28.3072 31.7066C26.5913 33.4314 24.7193 34.9954 22.715 36.3789L21.8867 36.9397L21.4978 37.1969L20.7647 37.6611L20.1114 38.0575L19.3025 38.5255C18.7532 38.8365 18.132 39 17.5 39C16.868 39 16.2468 38.8365 15.6975 38.5255L14.8886 38.0575L13.8775 37.4387L13.5042 37.1969L12.7069 36.669C10.5447 35.2134 8.53041 33.5514 6.69278 31.7066C3.25889 28.2139 0 23.3501 0 17.4052C0 12.7891 1.84374 8.36199 5.12563 5.09788C8.40752 1.83376 12.8587 0 17.5 0ZM17.5 11.6035C16.734 11.6035 15.9754 11.7536 15.2677 12.0451C14.5599 12.3367 13.9169 12.764 13.3752 13.3028C12.8335 13.8415 12.4039 14.4811 12.1107 15.185C11.8175 15.8889 11.6667 16.6433 11.6667 17.4052C11.6667 18.1671 11.8175 18.9216 12.1107 19.6255C12.4039 20.3294 12.8335 20.969 13.3752 21.5077C13.9169 22.0464 14.5599 22.4738 15.2677 22.7654C15.9754 23.0569 16.734 23.207 17.5 23.207C19.0471 23.207 20.5308 22.5957 21.6248 21.5077C22.7188 20.4197 23.3333 18.944 23.3333 17.4052C23.3333 15.8665 22.7188 14.3908 21.6248 13.3028C20.5308 12.2147 19.0471 11.6035 17.5 11.6035Z" fill="black"/>
</svg>
