<svg width="221" height="241" viewBox="0 0 221 241" fill="none" xmlns="http://www.w3.org/2000/svg">
<path d="M220.497 256.025C219.008 255.421 130.189 166.359 127.734 162.898C125.118 159.235 122.381 153.359 121.133 148.69L120.087 144.665L119.805 122.327L119.802 122.124C119.523 100.189 119.52 99.9362 118.477 95.7632C117.913 93.4288 116.826 89.726 116.021 87.5123C113.727 81.2738 113.365 78.2959 113.365 65.8187C113.365 55.7162 113.446 54.2675 114.653 45.9762L114.658 45.9411C115.861 37.2817 115.9 36.9996 115.176 36.1957C113.969 34.8675 110.628 35.27 108.052 37.0812L106.925 37.8459L106.845 93.0666L106.724 148.288L105.798 150.622C104.027 154.969 100.928 158.028 96.4202 159.879C94.2976 160.76 93.8088 160.765 71.6783 160.963L71.345 160.966L48.4027 161.167L51.6226 162.657C53.3533 163.462 57.0563 164.79 59.8335 165.595C69.0632 168.297 116.282 214.644 140.601 238.515C148.522 246.29 154.013 251.68 154.973 252.402C157.75 254.495 158.555 256.025 157.83 257.755L220.497 256.025Z" fill="white"/>
<path d="M10.5681 77.6718C9.84357 77.9938 8.59584 79 7.75061 79.9257C6.54314 81.2539 6.26138 81.8979 6.26138 83.2261C6.26138 84.7958 7.34814 86.4658 10.6083 89.8065C14.754 94.0729 17.2092 96.0449 19.4631 95.7632C20.7511 95.562 21.4756 95.1193 22.8038 93.7106C24.2527 92.1811 24.5345 91.6579 24.5345 90.2492C24.5345 88.6795 24.293 88.3576 19.4631 83.4875C16.1627 80.1468 13.1843 77.1486 12.178 77.1486C12.017 77.1486 11.2925 77.3901 10.5681 77.6718Z" fill="white"/>
<path d="M9.07883 102.565C7.30788 104.296 7.10661 104.698 7.10661 106.268C7.10661 107.918 7.26764 108.16 11.2925 112.185L15.5187 116.411L17.6117 116.209C19.5034 116.008 19.9461 115.767 21.4756 114.157C24.454 111.017 23.971 109.448 18.3764 104.095C14.8345 100.754 14.593 100.593 12.8623 100.593C11.2121 100.593 10.8095 100.794 9.07883 102.565Z" fill="white"/>
<path d="M6.90536 52.4796C4.16844 53.8078 3.12201 56.7057 4.45023 59.2414C4.77222 59.8451 7.67015 62.9442 10.8901 66.1641L16.7664 72V64.3127V56.6655L14.8345 54.8141C12.9428 52.9223 10.8095 51.7149 9.36057 51.6747C8.91783 51.6747 7.83109 52.0369 6.90536 52.4796Z" fill="white"/>
<path d="M10.2863 123.253C8.43484 124.501 7.10661 126.594 7.10661 128.284C7.10661 129.532 7.58963 130.176 11.0108 133.637C15.6797 138.386 16.7664 138.91 19.5839 137.501C21.7573 136.414 23.2063 134.402 23.2063 132.47C23.2063 131.182 22.7635 130.578 18.8594 126.674C14.9552 122.77 14.3515 122.327 13.0635 122.327C12.2585 122.327 11.0913 122.73 10.2863 123.253Z" fill="white"/>
<path fill-rule="evenodd" clip-rule="evenodd" d="M94.7297 0.575562C97.8692 1.42078 99.9621 2.62827 102.095 4.8017C106.12 8.78635 106.925 11.805 106.925 22.5917V30.5207V37.8459L106.845 93.0666L106.724 148.288L105.798 150.622C104.027 154.969 100.928 158.028 96.4202 159.879C94.2976 160.76 93.8088 160.765 71.6783 160.963L71.345 160.966L48.4027 161.167L36.8861 160.997C36.366 160.966 35.7032 160.966 34.7981 160.966C28.962 160.966 24.8967 159.477 21.5158 156.096C19.2216 153.762 17.6519 150.703 17.0482 147.08C16.6054 144.585 16.8872 141.606 15.5187 141.365H19.5839L24 138.5C22.0681 140.19 23.2063 143.297 23.2063 145.148C23.2466 148.69 25.6213 152.232 29.0424 153.762C30.5719 154.446 32.5045 154.526 61.846 154.526C91.1875 154.526 93.1198 154.446 94.6492 153.762C96.7422 152.836 98.7949 150.783 99.7206 148.69C100.445 147.161 100.485 144.102 100.485 80.5494C100.485 21.7054 100.405 13.8577 99.8816 12.5697C98.8754 10.1548 97.4264 8.5851 95.1725 7.45813C93.16 6.4519 92.7978 6.41165 86.5189 6.41165H79.9986L76.9799 12.3685C74.7259 16.7959 73.6794 18.4863 72.9147 18.8083C71.4658 19.4926 46.449 19.4926 45 18.8083C44.2353 18.4863 43.2539 16.7959 41 12.3685L38 6.5L33.9529 6.41165C30.1292 6.41165 28.157 7.13614 26.064 9.26933C25.9062 9.42505 25.7571 9.56679 25.6161 9.70073C25.3031 9.99826 25.0306 10.2573 24.7934 10.5453C23.1987 12.4821 23.1995 15.7326 23.2055 40.837C23.2059 42.4692 23.2063 44.1938 23.2063 46.0164V78.1748L16.7664 72V64.3127V56.6655V51C16.847 51 16.7664 39.617 16.8469 30.0377C16.9677 13.1734 17.0079 12.5697 17.8531 10.4768C19.7046 5.9689 22.7636 2.86975 27.1105 1.09879L29.445 0.173065L61.041 0.0925598C87.3639 0.0120544 92.999 0.0925598 94.7297 0.575562ZM47.7587 9.63158L49.5 12.8515H58.626H69.4934L71.1035 9.63158L72.7135 6.41165H58.626H46.1486L47.7587 9.63158Z" fill="white"/>
<path fill-rule="evenodd" clip-rule="evenodd" d="M8.5 137C12.4041 140.904 12.9428 140.882 15.5187 141.365H19.5839L24 138.5C26.9382 135.803 27 135 27 132.47C27 129.008 27.2199 128.002 24 124.5L23.0856 121.482L25.0578 119.751C26.1445 118.785 27.5935 117.014 28.2375 115.847C29.2035 114.036 29.4047 113.191 29.4047 110.856C29.445 107.435 28.5192 105.503 25.3798 102.203C24.1723 100.955 23.2063 99.8283 23.2063 99.7076C23.2063 99.6271 24.3736 98.3391 25.7823 96.9304C27.835 94.8777 28.479 93.9118 29.0022 92.1811C30.3304 87.7135 29.4852 84.8158 25.8225 80.9116L23.2063 78.1748L16.7664 72L10.8901 66.1641C7.67015 62.9442 4.77222 59.8451 4.45023 59.2414C3.12201 56.7057 4.16844 53.8078 6.90536 52.4796C7.83109 52.0369 8.91783 51.6747 9.36057 51.6747C10.8095 51.7149 12.9428 52.9223 14.8345 54.8141L16.7664 56.6655V51C16.6985 51 15.168 50.1584 14.1503 49.7122C13.9623 49.6298 13.2008 49.0878 13 49C10.9875 48.0743 11.2369 47.839 8.5 48C6.00456 48.161 7 48.5 6 48.5C0.727386 51.4784 -1.15643 56.1871 1.5 61.5C1.94273 62.4257 3.42407 64.8838 6 67.5C10.3871 71.9274 11.6548 72.5975 10.8901 73C12.1826 74 7.44896 76.051 6 77.5C3.82655 79.6332 3.52324 80.229 3 82C2.19502 84.7369 2.19502 84.8436 3 87.5C3.48299 89.11 3.9473 90.0077 6 92.1811L9.36057 95.7632L6.26138 99.7076C4.12819 101.841 4.02324 101.769 3.5 103.5C2.69502 106.197 2.69502 106.803 3.5 109.5C4.02324 111.231 4.77217 111.903 6.90536 114.157L10.5681 117.5L9.07883 120.5C5.97966 123.317 4.45975 124.702 4.5 128.284C4.5 132.108 3.71037 132.21 8.5 137ZM7.75061 79.9257C8.59584 79 9.84357 77.9938 10.5681 77.6718C11.2925 77.3901 12.017 77.1486 12.178 77.1486C13.1843 77.1486 16.1627 80.1468 19.4631 83.4875C24.293 88.3576 24.5345 88.6795 24.5345 90.2492C24.5345 91.6579 24.2527 92.1811 22.8038 93.7106C21.4756 95.1193 20.7511 95.562 19.4631 95.7632C17.2092 96.0449 14.754 94.0729 10.6083 89.8065C7.34814 86.4658 6.26138 84.7958 6.26138 83.2261C6.26138 81.8979 6.54314 81.2539 7.75061 79.9257ZM7.10661 106.268C7.10661 104.698 7.30788 104.296 9.07883 102.565C10.8095 100.794 11.2121 100.593 12.8623 100.593C14.593 100.593 14.8345 100.754 18.3764 104.095C23.971 109.448 24.454 111.017 21.4756 114.157C19.9461 115.767 19.5034 116.008 17.6117 116.209L15.5187 116.411L11.2925 112.185C7.26764 108.16 7.10661 107.918 7.10661 106.268ZM7.10661 128.284C7.10661 126.594 8.43484 124.501 10.2863 123.253C11.0913 122.73 12.2585 122.327 13.0635 122.327C14.3515 122.327 14.9552 122.77 18.8594 126.674C22.7635 130.578 23.2063 131.182 23.2063 132.47C23.2063 134.402 21.7573 136.414 19.5839 137.501C16.7664 138.91 15.6797 138.386 11.0108 133.637C7.58963 130.176 7.10661 129.532 7.10661 128.284Z" fill="white"/>
</svg>
