<svg width="71" height="63" viewBox="0 0 71 63" fill="none" xmlns="http://www.w3.org/2000/svg">
<path id="Vector" fill-rule="evenodd" clip-rule="evenodd" d="M69.5461 7.538C68.5334 0.329704 60.27 -1.9805 54.8675 1.79139C50.5901 4.77777 45.086 8.36644 39.6619 11.1952C34.0855 14.1034 29.1442 15.9077 25.8182 15.9077H9.68182C4.33471 15.9077 0 20.1323 0 25.3436V34.7796C0 39.7599 3.95915 43.8394 8.97747 44.191L7.66919 50.5659C6.68962 55.3396 9.59678 60.0556 14.381 61.4547L18.2952 62.5989C23.6526 64.1653 29.2533 60.9945 30.5113 55.6827L32.8456 45.8244C34.9449 46.6132 37.2437 47.6669 39.6619 48.9279C45.086 51.7567 50.5901 55.3455 54.8675 58.3317C60.27 62.1036 68.5334 59.7933 69.5461 52.5852C70.3039 47.1904 71 39.6309 71 30.0617C71 20.4923 70.3039 12.9328 69.5461 7.538ZM58.6263 6.90523C59.6371 6.19961 60.7528 6.13378 61.5951 6.44032C62.3948 6.73129 63.0067 7.36394 63.1513 8.39135C63.8713 13.516 64.5455 20.7903 64.5455 30.0617C64.5455 39.3328 63.8713 46.6072 63.1513 51.7319C63.0067 52.7592 62.3948 53.392 61.5951 53.6829C60.7528 53.9893 59.6371 53.9235 58.6263 53.2181C54.2421 50.157 48.482 46.3934 42.7071 43.3814C37.0846 40.4494 30.8927 37.9249 25.8182 37.9249H9.68182C7.89946 37.9249 6.45455 36.5168 6.45455 34.7796V25.3436C6.45455 23.6065 7.89946 22.1983 9.68182 22.1983H25.8182C30.8927 22.1983 37.0846 19.674 42.7071 16.7416C48.482 13.73 54.2421 9.96624 58.6263 6.90523ZM26.5951 44.2457C26.3273 44.2256 26.0681 44.2155 25.8182 44.2155H15.5548L13.9984 51.7998C13.6719 53.3907 14.6409 54.9631 16.2357 55.4292L20.1499 56.5738C21.9357 57.0959 23.8027 56.0388 24.2219 54.2683L26.5951 44.2457Z" fill="#FE0000"/>
</svg>
