<svg width="45" height="62" viewBox="0 0 45 62" fill="none" xmlns="http://www.w3.org/2000/svg">
<path id="Vector" d="M42 25.4V31C42 41.8248 33.2696 50.6 22.5 50.6M22.5 50.6C11.7305 50.6 3 41.8248 3 31V25.4M22.5 50.6V59M11.3571 59H33.6429M30.8571 14.2H25.2857M30.8571 25.4H25.2857M22.5 39.4C17.8844 39.4 14.1429 35.6393 14.1429 31V11.4C14.1429 6.76082 17.8844 3 22.5 3C27.1157 3 30.8571 6.76082 30.8571 11.4V31C30.8571 35.6393 27.1157 39.4 22.5 39.4Z" stroke="#FE0000" stroke-width="6" stroke-linecap="round" stroke-linejoin="round"/>
</svg>
