<svg width="64" height="64" viewBox="0 0 64 64" fill="none" xmlns="http://www.w3.org/2000/svg">
<g id="Group 1261154144">
<path id="Vector" d="M11.3469 0.234977C12.1717 0.631385 12.6962 1.46546 12.6962 2.38058C12.6962 5.01454 13.6869 6.53104 14.928 8.37786L15.0182 8.51203C16.0737 10.0801 17.4573 12.1357 17.4573 15.0768C17.4573 18.0779 15.9427 20.7253 13.6362 22.2962C14.243 22.805 14.7807 23.4324 15.2426 24.1801C16.7527 26.624 17.4573 30.3583 17.4573 35.7237C17.4573 41.158 16.7274 47.6839 15.5383 52.8938C14.9471 55.4844 14.2148 57.8742 13.3397 59.6704C12.9057 60.561 12.3772 61.431 11.7192 62.1115C11.0684 62.7841 10.0629 63.4967 8.72866 63.4967C7.39444 63.4967 6.38893 62.7841 5.73816 62.1115C5.08014 61.431 4.55166 60.561 4.11764 59.6704C3.24252 57.8742 2.51024 55.4844 1.919 52.8938C0.729938 47.6839 0 41.158 0 35.7237C0 30.3583 0.704609 26.624 2.2147 24.1801C2.67662 23.4324 3.21427 22.805 3.82109 22.2962C1.5146 20.7253 0 18.0779 0 15.0768C0 13.9081 0.00107913 11.8992 1.21697 9.30532C2.40686 6.76684 4.66796 3.85017 8.82858 0.52169C9.54315 -0.0499897 10.5221 -0.161431 11.3469 0.234977ZM4.76109 15.0728V15.0768C4.76109 17.268 6.53742 19.0444 8.72866 19.0444C10.9199 19.0444 12.6962 17.268 12.6962 15.0768C12.6962 13.6833 12.1096 12.7198 10.9763 11.0335L10.9375 10.9758C10.2111 9.89503 9.35309 8.61858 8.74075 6.97518C7.01635 8.72863 6.06404 10.1824 5.52791 11.3261C4.76109 12.962 4.76109 14.1261 4.76109 15.0728ZM6.26505 26.6827C5.47753 27.9571 4.76109 30.5709 4.76109 35.7237C4.76109 40.8073 5.45221 46.9776 6.56071 51.8343C7.11827 54.2773 7.75387 56.2633 8.39773 57.585C8.51625 57.8282 8.62728 58.0326 8.72866 58.2024C8.83004 58.0326 8.94107 57.8282 9.05959 57.585C9.70344 56.2633 10.339 54.2773 10.8966 51.8343C12.0051 46.9776 12.6962 40.8073 12.6962 35.7237C12.6962 30.5709 11.9798 27.9571 11.1923 26.6827C10.8339 26.1025 10.4782 25.8279 10.1603 25.6737C9.81806 25.5077 9.36563 25.408 8.72866 25.408C8.09169 25.408 7.63926 25.5077 7.297 25.6737C6.97915 25.8279 6.6234 26.1025 6.26505 26.6827Z" fill="#FE0000"/>
<path id="Vector_2" d="M25.2572 40.9993C23.5485 40.7127 21.917 40.1985 20.3949 39.4891C20.4615 38.1995 20.4961 36.9365 20.4961 35.7237C20.4961 35.1657 20.4889 34.6182 20.474 34.0818C21.9058 35.0438 23.5214 35.7539 25.2572 36.1478V26.9795C25.2572 24.35 27.3887 22.2184 30.0181 22.2184H42.7143C42.7143 14.33 36.3196 7.93516 28.4311 7.93516C25.167 7.93516 22.1585 9.03015 19.7531 10.8728C19.1198 9.1194 18.2146 7.7763 17.5849 6.84182L17.457 6.65195C20.559 4.46112 24.3448 3.17407 28.4311 3.17407C38.949 3.17407 47.4754 11.7005 47.4754 22.2184H58.5846C61.2143 22.2184 63.3457 24.35 63.3457 26.9795V55.546C63.3457 58.1754 61.2143 60.3071 58.5846 60.3071H30.0181C27.3887 60.3071 25.2572 58.1754 25.2572 55.546V40.9993ZM30.0181 41.1977V55.546H58.5846V26.9795H46.8755C44.8889 34.6988 38.184 40.5238 30.0181 41.1977ZM41.9018 26.9795H30.0181V36.4144C35.5381 35.8043 40.11 32.0485 41.9018 26.9795Z" fill="#FE0000"/>
</g>
</svg>
