<svg width="75" height="53" viewBox="0 0 75 53" fill="none" xmlns="http://www.w3.org/2000/svg">
<path id="Vector" d="M52.8333 18.6667L62.7111 12.6112C65.7513 10.7473 67.2716 9.81535 68.5224 9.9345C69.613 10.0384 70.6081 10.614 71.2563 11.5161C72 12.5507 72 14.3621 72 17.9848V35.0152C72 38.6378 72 40.4492 71.2563 41.484C70.6081 42.386 69.613 42.9618 68.5224 43.0655C67.2716 43.1846 65.7513 42.2528 62.7111 40.3889L52.8333 34.3333M15.2667 50H40.5667C44.8604 50 47.0074 50 48.6473 49.1462C50.0898 48.3953 51.2628 47.1968 51.9977 45.723C52.8333 44.0475 52.8333 41.8537 52.8333 37.4667V15.5333C52.8333 11.1463 52.8333 8.95271 51.9977 7.27708C51.2628 5.80312 50.0898 4.60478 48.6473 3.85379C47.0074 3 44.8604 3 40.5667 3H15.2667C10.9729 3 8.82605 3 7.18608 3.85379C5.74348 4.60478 4.57063 5.80312 3.83563 7.27708C3 8.95271 3 11.1462 3 15.5333V37.4667C3 41.8537 3 44.0475 3.83563 45.723C4.57063 47.1968 5.74348 48.3953 7.18608 49.1462C8.82605 50 10.9729 50 15.2667 50Z" stroke="#FE0000" stroke-width="5" stroke-linecap="round" stroke-linejoin="round"/>
</svg>
