<svg width="83" height="71" viewBox="0 0 83 71" fill="none" xmlns="http://www.w3.org/2000/svg">
<g id="Group">
<path id="Vector" fill-rule="evenodd" clip-rule="evenodd" d="M58.3773 37.7786C64.9384 32.7799 74.3067 34.0379 79.312 40.599C84.3107 47.1601 83.0527 56.5285 76.4916 61.5337C69.9305 66.5323 60.5621 65.2744 55.5569 58.7133C54.2658 57.0184 53.3919 55.1381 52.9218 53.1916L43.4873 54.3635C42.5604 54.4893 41.713 53.8404 41.5872 52.9135C41.4614 51.9866 42.1102 51.1392 43.0371 51.0134L52.5047 49.8415C52.4451 45.2732 54.4777 40.7513 58.3773 37.7786ZM43.4939 2.49017C50.5781 -1.01881 59.1718 1.88107 62.6808 8.96523C66.1898 16.0494 63.2899 24.6431 56.2057 28.1521C50.7039 30.8732 44.3017 29.741 40.071 25.7818L33.3047 31.7471C32.6095 32.3695 31.5435 32.3099 30.9212 31.6147C30.2989 30.9195 30.3584 29.8536 31.0536 29.2312L37.8928 23.1998C37.575 22.7165 37.2837 22.2067 37.0189 21.677C33.5099 14.5928 36.4098 5.99915 43.4939 2.49017ZM3.94179 49.921C2.44551 50.6029 2.00192 52.2978 2.27337 54.1053C2.39916 54.9329 2.67061 55.7671 3.04799 56.5682C3.43199 57.3693 3.92193 58.1042 4.50455 58.7133C5.83531 60.1169 7.61629 60.8319 9.45684 59.905C9.6025 59.8388 9.75478 59.8256 9.88719 59.8719C9.92029 59.8587 9.94016 59.8388 9.9865 59.8256C10.4566 59.6071 10.8803 59.4085 11.2643 59.2231C11.7013 59.0245 12.1118 58.8457 12.5024 58.6736C12.8069 58.5478 13.1578 58.6934 13.277 58.9847C13.2902 59.0046 13.2969 59.0311 13.2969 59.0509L13.5749 59.7925C14.29 61.7125 14.9785 63.5729 15.773 65.0361C15.7862 65.0559 15.8856 65.2678 15.9981 65.4664C16.4814 66.3933 17.0111 67.393 17.5805 67.9426C18.0836 68.4193 18.6994 68.4987 19.5336 67.6513C19.6859 67.4659 19.8381 67.2871 19.9904 67.115C20.4803 66.5588 20.9636 66.0093 21.0762 65.2744C20.9239 65.1155 20.6657 65.0493 20.4075 64.9765C19.5468 64.7381 18.6994 64.513 18.6729 62.7718V62.5202C18.6729 62.0104 18.6596 61.7522 18.6265 61.6529C18.6067 61.5933 18.461 61.5006 18.1896 61.3086L18.0836 61.2424C17.5474 60.865 17.2825 60.2625 17.2031 59.5872C17.1038 58.7861 17.2428 57.8725 17.4216 57.2104C17.4745 56.9985 17.6334 56.8462 17.8387 56.7867C23.7841 55.1182 27.6241 55.6611 30.6895 56.1047C30.8219 56.1246 30.9543 56.1378 31.0735 56.1577C28.0743 53.8073 25.3598 50.007 23.314 45.9949C21.149 41.7643 19.7256 37.2887 19.4872 34.0511C17.5672 37.9309 14.1178 44.1477 4.57076 49.2258C4.55752 49.2258 4.55089 49.239 4.53765 49.239L4.4582 49.2721C4.35889 49.3185 4.34565 49.3119 4.32579 49.3384C4.32579 49.3715 4.35227 49.3715 4.32579 49.431C4.32579 49.4443 4.33241 49.4046 4.24634 49.6098C4.18013 49.7488 4.0742 49.8481 3.95503 49.9077L3.94179 49.921ZM28.8688 45.6308C29.0674 47.0873 27.9948 49.9011 27.1209 50.0666C29.0542 52.8341 31.2655 55.1646 33.5827 56.4093C33.7151 56.4027 33.8211 56.4027 33.9336 56.3828C34.1389 56.3431 34.3309 56.2702 34.5361 56.0981C34.9466 55.542 35.1452 54.7475 35.1783 53.7676C35.2511 50.7618 33.6556 46.273 31.4244 42.0489C29.1998 37.8183 26.3463 33.879 23.9297 31.9722C23.0426 31.277 22.2348 30.8666 21.5992 30.8599C21.4337 30.8599 21.341 30.8599 21.2947 30.893C21.2483 30.9195 21.1689 31.0056 21.0563 31.1512C21.0034 31.2175 20.9438 31.2969 20.8842 31.3896C20.8776 31.4161 20.8776 31.4227 20.871 31.4492C20.1625 33.634 21.0961 37.9971 23.0227 42.5521C23.9363 41.9629 28.3722 41.8768 28.882 45.6241L28.8688 45.6308ZM33.682 57.5944C33.5562 57.6341 33.4305 57.6407 33.2914 57.5878C33.1855 57.5811 33.0663 57.5745 32.9471 57.5613C32.1593 57.5017 31.3714 57.3958 30.524 57.2766C27.6373 56.8661 24.0092 56.3431 18.4875 57.8393C18.3816 58.3425 18.3154 58.9318 18.3749 59.4416C18.4279 59.8123 18.5405 60.1169 18.7589 60.2758L18.8649 60.342C19.335 60.6664 19.5733 60.8253 19.7256 61.1961C19.8646 61.5072 19.8646 61.8515 19.8712 62.5136V62.7652C19.8778 63.606 20.3082 63.7252 20.7319 63.8443C21.2881 63.9966 21.8376 64.1423 22.1951 64.8308C22.2547 64.9301 22.2812 65.0427 22.2812 65.1751C22.215 66.4198 21.5463 67.1746 20.8776 67.9161C20.7319 68.075 20.5796 68.2537 20.4472 68.4126L20.4141 68.4524C18.951 69.9884 17.7725 69.7765 16.7661 68.8231C16.0445 68.1412 15.4817 67.0554 14.9388 66.049C14.8925 65.963 14.8461 65.8703 14.7137 65.6319C13.8993 64.1092 13.1909 62.2024 12.456 60.2427L12.3832 60.0374C12.1713 60.1367 11.9462 60.2294 11.7344 60.3287C11.2974 60.5274 10.8737 60.7194 10.4764 60.918C10.4168 60.9378 10.3904 60.9643 10.3639 60.9776C10.0991 61.1232 9.99312 61.1961 9.72829 61.11C7.41766 62.1494 5.23283 61.2556 3.62399 59.5541C2.96192 58.8523 2.39254 58.0049 1.96219 57.1045C1.53185 56.204 1.23392 55.2374 1.08826 54.2973C0.757225 52.0528 1.33323 49.9408 3.22675 48.9676C3.29958 48.7888 3.34592 48.7028 3.45848 48.577C3.58427 48.4446 3.69682 48.3916 3.91531 48.2658L3.99475 48.2327C4.008 48.2327 4.01462 48.2195 4.01462 48.2195C13.8265 43.0089 16.9647 36.5471 18.7589 32.866C19.2555 31.8398 19.6527 31.0255 20.0897 30.4561C20.3016 30.178 20.4671 29.9992 20.7121 29.8734C20.957 29.7477 21.2219 29.6947 21.5926 29.7079C22.5195 29.7212 23.5457 30.2243 24.6381 31.0784C27.1871 33.0845 30.1532 37.1629 32.444 41.5259C34.748 45.9022 36.4098 50.5963 36.3303 53.814C36.2972 55.0653 36.0192 56.118 35.41 56.8793C35.3902 56.9058 35.3703 56.9323 35.3372 56.9456C34.9334 57.3097 34.5361 57.4818 34.1058 57.5547C33.9535 57.5745 33.8012 57.5944 33.6622 57.601L33.682 57.5944ZM45.6457 15.1887L49.5453 11.5606C49.4658 11.4149 49.4062 11.256 49.3599 11.0971C48.9229 9.64716 49.7505 8.11778 51.2005 7.68081C52.6504 7.24384 54.1798 8.07143 54.6167 9.52137C55.0537 10.9713 54.2261 12.5007 52.7762 12.9377C52.2002 13.1098 51.6176 13.0833 51.0879 12.9046L46.9897 16.7181C47.0029 16.7644 47.0228 16.8108 47.036 16.8571C47.0625 16.9366 47.0824 17.016 47.0956 17.1021L52.1737 17.9628C52.5114 17.3868 53.0609 16.9233 53.7561 16.7181C55.206 16.2811 56.7354 17.1087 57.1723 18.5586C57.6093 20.0086 56.7817 21.538 55.3318 21.9749C53.8818 22.4119 52.3525 21.5843 51.9155 20.1344C51.9022 20.0814 51.8824 20.0218 51.8691 19.9689L46.7315 19.1015C46.3938 19.6511 45.8575 20.0814 45.1888 20.28C43.7389 20.717 42.2095 19.8894 41.7726 18.4395C41.3356 16.9895 42.1632 15.4602 43.6131 15.0232C44.3215 14.7981 45.0432 14.8842 45.6457 15.1887ZM70.3807 44.9885L73.7374 44.5582C74.757 44.4258 75.7037 45.1541 75.8361 46.1803L76.2599 49.4641C76.3923 50.4904 75.664 51.4305 74.6378 51.5629L73.1945 51.7483C73.5056 52.5428 73.8499 53.2446 74.704 53.8206C73.1945 53.6352 71.9696 53.0261 70.9964 52.0264L70.7448 52.0595C70.6455 52.0727 70.5462 52.0793 70.4403 52.0793C70.9368 51.5629 71.248 50.9472 71.1685 50.3381L70.9898 48.9676L70.8309 47.7295L70.566 45.6837C70.5329 45.4388 70.4667 45.207 70.3807 44.9885ZM61.0587 44.7171L66.256 44.0484C67.6728 43.8696 68.9771 44.876 69.1625 46.2928L69.6391 50.007C69.7385 50.7618 69.2949 51.4901 68.6527 52.0396C68.0568 52.5494 67.2623 52.9268 66.6002 53.0128L66.5473 53.0195C66.1567 53.6617 65.6733 54.2311 65.104 54.721C64.475 55.2639 63.7335 55.7075 62.886 56.0385C62.7271 56.0981 62.5417 56.0782 62.4027 55.9524C62.2041 55.7803 62.1842 55.4824 62.3564 55.2838C62.694 54.8931 62.8993 54.5091 63.0383 54.1185C63.1111 53.9 63.1707 53.6749 63.2104 53.4432L62.1975 53.5756C61.489 53.6683 60.8071 53.4631 60.2841 53.0526C59.761 52.6487 59.3903 52.0396 59.2976 51.3312L58.8209 47.617C58.6355 46.2068 59.6419 44.9025 61.0587 44.7171Z" fill="#FE0000" stroke="#FE0000"/>
</g>
</svg>
