<svg width="37" height="38" viewBox="0 0 37 38" fill="none" xmlns="http://www.w3.org/2000/svg">
<path d="M18.3332 36.6144C13.8474 36.6114 9.53174 34.8969 6.26686 31.8206C3.00199 28.7444 1.03394 24.5383 0.764295 20.0605C0.494646 15.5828 1.94372 11.1709 4.81583 7.72513C7.68795 4.27932 11.7666 2.05926 16.2197 1.51795C18.928 1.18248 21.6773 1.4864 24.247 2.40535C24.4147 2.4654 24.5689 2.55789 24.7008 2.67754C24.8328 2.79718 24.9398 2.94165 25.016 3.10268C25.0921 3.26371 25.1357 3.43816 25.1444 3.61606C25.1531 3.79396 25.1267 3.97183 25.0666 4.13952C25.0066 4.3072 24.9141 4.46142 24.7945 4.59336C24.6748 4.72531 24.5303 4.83239 24.3693 4.90851C24.2083 4.98462 24.0338 5.02827 23.8559 5.03696C23.678 5.04566 23.5002 5.01923 23.3325 4.95918C20.0037 3.77479 16.3624 3.8116 13.0582 5.06303C9.7541 6.31446 7.00203 8.69911 5.29307 11.7915C3.58411 14.8839 3.02943 18.4829 3.72798 21.9464C4.42654 25.4098 6.3329 28.5124 9.10692 30.7006C11.4285 32.521 14.238 33.6113 17.1798 33.8336C20.1215 34.0558 23.063 33.4 25.6317 31.9492C28.2004 30.4984 30.2807 28.3178 31.6091 25.6837C32.9375 23.0496 33.4543 20.0805 33.0939 17.1525C33.0726 16.9746 33.0865 16.7942 33.1348 16.6217C33.1832 16.4491 33.2651 16.2878 33.3758 16.1469C33.4865 16.006 33.6239 15.8883 33.7801 15.8005C33.9363 15.7126 34.1082 15.6565 34.2861 15.6351C34.4641 15.6138 34.6444 15.6277 34.817 15.676C34.9895 15.7244 35.1509 15.8063 35.2918 15.917C35.4327 16.0277 35.5504 16.1651 35.6382 16.3213C35.726 16.4775 35.7822 16.6494 35.8035 16.8274C36.1117 19.3041 35.8899 21.8181 35.1529 24.2027C34.4159 26.5872 33.1805 28.7879 31.5286 30.6589C29.8767 32.5299 27.846 34.0284 25.5711 35.0551C23.2962 36.0818 20.8291 36.6133 18.3332 36.6144Z" fill="white" stroke="white"/>
<path d="M18.3333 31.1001C17.974 31.1001 17.6294 30.9574 17.3753 30.7033C17.1213 30.4492 16.9785 30.1046 16.9785 29.7453V16.7391C16.9785 16.3798 17.1213 16.0352 17.3753 15.7811C17.6294 15.527 17.974 15.3843 18.3333 15.3843C18.6926 15.3843 19.0373 15.527 19.2913 15.7811C19.5454 16.0352 19.6881 16.3798 19.6881 16.7391V29.7453C19.6881 30.1046 19.5454 30.4492 19.2913 30.7033C19.0373 30.9574 18.6926 31.1001 18.3333 31.1001Z" fill="white" stroke="white"/>
<path d="M18.3337 13.7723C19.2952 13.7723 20.0746 12.9928 20.0746 12.0313C20.0746 11.0698 19.2952 10.2904 18.3337 10.2904C17.3722 10.2904 16.5928 11.0698 16.5928 12.0313C16.5928 12.9928 17.3722 13.7723 18.3337 13.7723Z" fill="white" stroke="white"/>
</svg>
