<svg width="39" height="33" viewBox="0 0 39 33" fill="none" xmlns="http://www.w3.org/2000/svg">
<path d="M36.8 30.9998C36.8 27.6327 33.5721 24.7683 29.0666 23.7065M25.2 31C25.2 26.729 20.0065 23.2666 13.6 23.2666C7.19349 23.2666 2 26.729 2 31M25.2 17.4667C29.4709 17.4667 32.9333 14.0042 32.9333 9.73333C32.9333 5.46233 29.4709 2 25.2 2M13.6 17.4667C9.32899 17.4667 5.86666 14.0042 5.86666 9.73333C5.86666 5.46233 9.32899 2 13.6 2C17.8709 2 21.3333 5.46233 21.3333 9.73333C21.3333 14.0042 17.8709 17.4667 13.6 17.4667Z" stroke="white" stroke-width="4" stroke-linecap="round" stroke-linejoin="round"/>
</svg>
