<svg width="34" height="37" viewBox="0 0 34 37" fill="none" xmlns="http://www.w3.org/2000/svg">
<path d="M33.9586 6.93134C33.8969 6.69514 33.7901 6.47381 33.6443 6.28013C33.4985 6.08646 33.3167 5.92429 33.1093 5.80301L23.7127 0.253825C23.5075 0.130758 23.2806 0.050352 23.0451 0.0172175C22.8095 -0.015917 22.5698 -0.00112891 22.3398 0.0607341C22.1098 0.122597 21.894 0.230318 21.7048 0.377722C21.5156 0.525126 21.3566 0.709314 21.2371 0.919727L17.0086 8.42962L12.7801 0.919727C12.6606 0.709314 12.5016 0.525126 12.3124 0.377722C12.1232 0.230318 11.9074 0.122597 11.6774 0.0607341C11.4474 -0.00112891 11.2077 -0.015917 10.9721 0.0172175C10.7366 0.050352 10.5097 0.130758 10.3045 0.253825L0.907938 5.80301C0.700549 5.92429 0.518707 6.08646 0.372927 6.28013C0.227148 6.47381 0.120324 6.69514 0.058633 6.93134C-0.0609625 7.40015 0.00392188 7.89828 0.239337 8.31864L7.46747 20.9523C6.66107 22.4645 6.21527 24.1504 6.1664 25.8726C6.1621 27.5526 6.53049 29.2118 7.24379 30.7249C7.95709 32.238 8.99669 33.5656 10.2842 34.6076C11.5717 35.6496 13.0735 36.3788 14.6764 36.7402C16.2793 37.1016 17.9414 37.0858 19.5374 36.6939C21.1335 36.302 22.6218 35.5444 23.8901 34.478C25.1584 33.4117 26.1737 32.0645 26.8594 30.538C27.545 29.0115 27.8832 27.3457 27.8483 25.666C27.8135 23.9863 27.4065 22.3366 26.6582 20.8413L33.7056 8.33713C33.8367 8.13171 33.9267 7.90162 33.9701 7.66026C34.0135 7.41891 34.0096 7.17113 33.9586 6.93134ZM4.35937 8.07817L10.6117 4.37872L16.4304 14.7742C13.9501 14.931 11.5998 15.964 9.78047 17.6968L4.35937 8.07817ZM17.0086 33.2715C15.0916 33.2715 13.2531 32.4919 11.8975 31.1044C10.542 29.7168 9.78047 27.8349 9.78047 25.8726C9.78047 23.9102 10.542 22.0283 11.8975 20.6407C13.2531 19.2532 15.0916 18.4736 17.0086 18.4736C18.9256 18.4736 20.7641 19.2532 22.1197 20.6407C23.4752 22.0283 24.2367 23.9102 24.2367 25.8726C24.2367 27.8349 23.4752 29.7168 22.1197 31.1044C20.7641 32.4919 18.9256 33.2715 17.0086 33.2715ZM24.2367 17.6413C23.2557 16.724 22.1157 16.0026 20.8757 15.5141L19.1048 12.1291L23.4778 4.37872L29.7301 8.07817L24.2367 17.6413Z" fill="white"/>
</svg>
