<svg width="42" height="37" viewBox="0 0 42 37" fill="none" xmlns="http://www.w3.org/2000/svg">
<path d="M6.61403 19.75H3.45613C2.22804 19.75 1.35086 20.6429 1.35086 21.8929V33.3215C1.35086 34.5715 2.22804 35.4643 3.45613 35.4643H6.61403C7.84211 35.4643 8.71929 34.5715 8.71929 33.3215V21.8929C8.71929 20.8215 7.84211 19.75 6.61403 19.75ZM6.96489 33.3214C6.96489 33.5 6.78944 33.6786 6.61403 33.6786H3.45613C3.28068 33.6786 3.10527 33.5 3.10527 33.3214V21.8929C3.10527 21.7143 3.28072 21.5357 3.45613 21.5357H6.61403C6.78948 21.5357 6.96489 21.7143 6.96489 21.8929V33.3214ZM17.3158 17.7857H14.1579C12.9298 17.7857 12.0526 18.6786 12.0526 19.9286V33.6786C12.0526 34.9286 12.9298 35.8214 14.1579 35.8214H17.3158C18.5438 35.8214 19.421 34.9286 19.421 33.6786V19.75C19.421 18.6786 18.5438 17.7857 17.3158 17.7857ZM17.6667 33.5C17.6667 33.6786 17.4912 33.8571 17.3158 33.8571H14.1579C13.9825 33.8571 13.807 33.6786 13.807 33.5V19.75C13.807 19.5714 13.9825 19.3929 14.1579 19.3929H17.3158C17.4913 19.3929 17.6667 19.5715 17.6667 19.75V33.5ZM28.0175 15.6429H24.8596C23.6316 15.6429 22.7544 16.5357 22.7544 17.7857V33.8571C22.7544 35.1072 23.6316 36 24.8596 36H28.0175C29.2456 36 30.1228 35.1072 30.1228 33.8571V17.7857C30.1228 16.5357 29.0702 15.6429 28.0175 15.6429ZM28.3684 33.8571C28.3684 34.0357 28.193 34.2143 28.0175 34.2143H24.8596C24.6842 34.2143 24.5088 34.0357 24.5088 33.8571V17.7857C24.5088 17.6071 24.6842 17.4286 24.8596 17.4286H28.0175C28.193 17.4286 28.3684 17.6072 28.3684 17.7857V33.8571ZM38.7193 13.5H35.5614C34.3333 13.5 33.4562 14.3929 33.4562 15.6429V33.6786C33.4562 34.9286 34.3333 35.8214 35.5614 35.8214H38.7193C39.9474 35.8214 40.8246 34.9286 40.8246 33.6786V15.6429C40.8246 14.5714 39.772 13.5 38.7193 13.5ZM39.0702 33.6786C39.0702 33.8572 38.8947 34.0357 38.7193 34.0357H35.5614C35.386 34.0357 35.2106 33.8571 35.2106 33.6786V15.6429C35.2106 15.4643 35.386 15.2858 35.5614 15.2858H38.7193C38.8948 15.2858 39.0702 15.4644 39.0702 15.6429V33.6786ZM40.1228 1.00004C39.9474 1.00004 39.9474 1.00004 40.1228 1.00004H35.9123C35.386 1.00004 35.0351 1.35717 35.0351 1.89288C35.0351 2.4286 35.386 2.78573 35.9123 2.78573H37.6667C26.614 9.03571 14.5088 12.6072 1.87718 13.3214C1.35086 13.3214 1 13.8571 1 14.2143C1 14.75 1.35086 15.1071 1.87718 15.1071C15.2105 14.3928 27.6667 10.6428 39.2456 4.0357V5.82143C39.2456 6.35714 39.5965 6.71427 40.1228 6.71427C40.6491 6.71427 41 6.35714 41 5.82143V1.7143C41 1.35717 40.6491 1.00004 40.1228 1.00004Z" fill="white"/>
<path d="M40.1228 1.00004C39.9474 1.00004 39.9474 1.00004 40.1228 1.00004ZM40.1228 1.00004H35.9123C35.386 1.00004 35.0351 1.35717 35.0351 1.89288C35.0351 2.4286 35.386 2.78573 35.9123 2.78573H37.6667C26.614 9.03571 14.5088 12.6072 1.87718 13.3214C1.35086 13.3214 1 13.8571 1 14.2143C1 14.75 1.35086 15.1071 1.87718 15.1071C15.2105 14.3928 27.6667 10.6428 39.2456 4.0357V5.82143C39.2456 6.35714 39.5965 6.71427 40.1228 6.71427C40.6491 6.71427 41 6.35714 41 5.82143V1.7143C41 1.35717 40.6491 1.00004 40.1228 1.00004ZM6.61403 19.75H3.45613C2.22804 19.75 1.35086 20.6429 1.35086 21.8929V33.3215C1.35086 34.5715 2.22804 35.4643 3.45613 35.4643H6.61403C7.84211 35.4643 8.71929 34.5715 8.71929 33.3215V21.8929C8.71929 20.8215 7.84211 19.75 6.61403 19.75ZM6.96489 33.3214C6.96489 33.5 6.78944 33.6786 6.61403 33.6786H3.45613C3.28068 33.6786 3.10527 33.5 3.10527 33.3214V21.8929C3.10527 21.7143 3.28072 21.5357 3.45613 21.5357H6.61403C6.78948 21.5357 6.96489 21.7143 6.96489 21.8929V33.3214ZM17.3158 17.7857H14.1579C12.9298 17.7857 12.0526 18.6786 12.0526 19.9286V33.6786C12.0526 34.9286 12.9298 35.8214 14.1579 35.8214H17.3158C18.5439 35.8214 19.421 34.9286 19.421 33.6786V19.75C19.421 18.6786 18.5439 17.7857 17.3158 17.7857ZM17.6667 33.5C17.6667 33.6786 17.4912 33.8571 17.3158 33.8571H14.1579C13.9825 33.8571 13.807 33.6786 13.807 33.5V19.75C13.807 19.5714 13.9825 19.3929 14.1579 19.3929H17.3158C17.4913 19.3929 17.6667 19.5715 17.6667 19.75V33.5ZM28.0175 15.6429H24.8596C23.6316 15.6429 22.7544 16.5357 22.7544 17.7857V33.8571C22.7544 35.1072 23.6316 36 24.8596 36H28.0175C29.2456 36 30.1228 35.1072 30.1228 33.8571V17.7857C30.1228 16.5357 29.0702 15.6429 28.0175 15.6429ZM28.3684 33.8571C28.3684 34.0357 28.193 34.2143 28.0175 34.2143H24.8596C24.6842 34.2143 24.5088 34.0357 24.5088 33.8571V17.7857C24.5088 17.6071 24.6842 17.4286 24.8596 17.4286H28.0175C28.193 17.4286 28.3684 17.6072 28.3684 17.7857V33.8571ZM38.7193 13.5H35.5614C34.3333 13.5 33.4562 14.3929 33.4562 15.6429V33.6786C33.4562 34.9286 34.3333 35.8214 35.5614 35.8214H38.7193C39.9474 35.8214 40.8246 34.9286 40.8246 33.6786V15.6429C40.8246 14.5714 39.772 13.5 38.7193 13.5ZM39.0702 33.6786C39.0702 33.8572 38.8947 34.0357 38.7193 34.0357H35.5614C35.386 34.0357 35.2106 33.8571 35.2106 33.6786V15.6429C35.2106 15.4643 35.386 15.2858 35.5614 15.2858H38.7193C38.8948 15.2858 39.0702 15.4644 39.0702 15.6429V33.6786Z" stroke="white"/>
</svg>
