<svg width="37" height="37" viewBox="0 0 37 37" fill="none" xmlns="http://www.w3.org/2000/svg">
<path d="M34.8327 13.9336H23.0588V3.61152C27.1853 4.71793 30.6577 7.59488 32.4997 11.5106C32.7731 12.0954 33.467 12.3452 34.0521 12.069C34.6343 11.7942 34.8857 11.1007 34.6122 10.5188C32.2424 5.48786 27.5587 1.93354 22.087 1.01521C21.7445 0.960844 21.402 1.05341 21.1388 1.27381C20.8771 1.49715 20.7272 1.82187 20.7272 2.1657V15.1002C20.7272 15.7453 21.2476 16.2669 21.893 16.2669H34.8327C35.4781 16.2669 36 15.7453 36 15.1002C36 14.4567 35.4781 13.9336 34.8327 13.9336ZM30.1667 19.6757H17.3342V10.6864C17.3342 10.0443 16.8123 9.52117 16.167 9.52117C15.5216 9.52117 14.9997 10.0443 14.9997 10.6864V20.8424C14.9997 21.4874 15.5216 22.0076 16.167 22.0076H28.948C28.3584 28.5373 22.8515 33.6682 16.167 33.6682C9.0914 33.6682 3.33451 27.9143 3.33451 20.8424C3.33451 13.769 9.0914 8.01511 16.167 8.01511C16.8123 8.01511 17.3342 7.49202 17.3342 6.84993C17.3342 6.20489 16.8123 5.68328 16.167 5.68328C7.80506 5.68328 1 12.4833 1 20.8424C1 29.1999 7.80506 36 16.167 36C24.5303 36 31.3325 29.1999 31.3325 20.8424C31.3325 20.1973 30.812 19.6757 30.1667 19.6757Z" fill="white" stroke="#FFFAFA"/>
</svg>
