<svg width="36" height="35" viewBox="0 0 36 35" fill="none" xmlns="http://www.w3.org/2000/svg">
<g id="Group 1261154082">
<g id="Group">
<g id="Group_2">
<g id="Group_3">
<path id="Vector" d="M3.84489 10.684C2.65099 10.684 1.67969 9.71273 1.67969 8.51888C1.67969 7.32502 2.65101 6.35376 3.84489 6.35376C5.03869 6.35376 6.00992 7.32502 6.00992 8.51888C6.00992 9.71273 5.03869 10.684 3.84489 10.684ZM3.84489 7.52773C3.29835 7.52773 2.85368 7.97237 2.85368 8.51887C2.85368 9.06536 3.29833 9.50998 3.84489 9.50998C4.39135 9.50998 4.83593 9.06535 4.83593 8.51887C4.83593 7.97239 4.39135 7.52773 3.84489 7.52773Z" fill="white" stroke="white"/>
</g>
<g id="Group_4">
<path id="Vector_2" d="M22.1711 13.9991C20.9772 13.9991 20.0059 13.0279 20.0059 11.8341C20.0059 10.6402 20.9772 9.66895 22.1711 9.66895C23.3649 9.66895 24.3361 10.6403 24.3361 11.8341C24.3361 13.0279 23.3648 13.9991 22.1711 13.9991ZM22.1711 10.8429C21.6245 10.8429 21.1799 11.2876 21.1799 11.8341C21.1799 12.3806 21.6245 12.8251 22.1711 12.8251C22.7175 12.8251 23.1621 12.3805 23.1621 11.8341C23.1621 11.2876 22.7175 10.8429 22.1711 10.8429Z" fill="white" stroke="white"/>
</g>
<g id="Group_5">
<path id="Vector_3" d="M13.0093 8.10045C11.0517 8.10045 9.45898 6.50783 9.45898 4.55022C9.45898 2.59262 11.0517 1 13.0093 1C14.9668 1 16.5594 2.59262 16.5594 4.55022C16.5594 6.50783 14.9668 8.10045 13.0093 8.10045ZM13.0093 2.17399C11.699 2.17399 10.633 3.23997 10.633 4.55022C10.633 5.86048 11.699 6.92646 13.0093 6.92646C14.3195 6.92646 15.3854 5.86048 15.3854 4.55022C15.3854 3.23997 14.3195 2.17399 13.0093 2.17399Z" fill="white" stroke="white"/>
</g>
<g id="Group_6">
<path id="Vector_4" d="M31.3374 8.10045C29.3798 8.10045 27.7871 6.50783 27.7871 4.55022C27.7871 2.59262 29.3798 1 31.3374 1C33.2949 1 34.8876 2.59262 34.8876 4.55022C34.8876 6.50783 33.2949 8.10045 31.3374 8.10045ZM31.3374 2.17399C30.0271 2.17399 28.9611 3.23997 28.9611 4.55022C28.9611 5.86048 30.0271 6.92646 31.3374 6.92646C32.6476 6.92646 33.7136 5.86048 33.7136 4.55022C33.7136 3.23997 32.6476 2.17399 31.3374 2.17399Z" fill="white" stroke="white"/>
</g>
<g id="Group_7">
<path id="Vector_5" d="M10.4897 6.0668L9.94531 5.02661L5.15013 7.53624L5.69453 8.57643L10.4897 6.0668Z" fill="white" stroke="white"/>
</g>
<g id="Group_8">
<path id="Vector_6" d="M21.294 10.6836L15.793 6.0813L15.0396 6.98174L20.5406 11.5841L21.294 10.6836Z" fill="white" stroke="white"/>
</g>
<g id="Group_9">
<path id="Vector_7" d="M23.9106 11.757L23.1719 10.8445L28.76 6.32153L29.4986 7.23403L23.9106 11.757Z" fill="white" stroke="white"/>
</g>
</g>
<g id="Group_10">
<path id="Vector_8" d="M5.17302 34.4076H2.50819C1.67659 34.4076 1 33.7217 1 32.8786V15.0988C1 14.2557 1.67659 13.5698 2.50819 13.5698H5.17302C6.00462 13.5698 6.68119 14.2557 6.68119 15.0988V32.8786C6.68119 33.7217 6.00462 34.4076 5.17302 34.4076ZM2.50819 14.7438C2.32388 14.7438 2.17399 14.903 2.17399 15.0988V32.8786C2.17399 33.0743 2.32388 33.2336 2.50819 33.2336H5.17302C5.35731 33.2336 5.5072 33.0743 5.5072 32.8786V15.0988C5.5072 14.903 5.35729 14.7438 5.17302 14.7438H2.50819Z" fill="white" stroke="white"/>
</g>
<g id="Group_11">
<path id="Vector_9" d="M14.339 34.4074H11.6741C10.8426 34.4074 10.166 33.6745 10.166 32.7736V13.0144C10.166 12.1135 10.8426 11.3806 11.6741 11.3806H14.339C15.1706 11.3806 15.8471 12.1135 15.8471 13.0144V32.7736C15.8471 33.6745 15.1706 34.4074 14.339 34.4074ZM11.6741 12.5546C11.493 12.5546 11.34 12.7652 11.34 13.0145V32.7737C11.34 33.0229 11.493 33.2335 11.6741 33.2335H14.339C14.5201 33.2335 14.6731 33.0229 14.6731 32.7737V13.0144C14.6731 12.7652 14.5201 12.5546 14.339 12.5546L11.6741 12.5546Z" fill="white" stroke="white"/>
</g>
<g id="Group_12">
<path id="Vector_10" d="M23.5031 34.4078H20.8383C20.0067 34.4078 19.3301 33.8114 19.3301 33.0783V19.0634C19.3301 18.3303 20.0067 17.7339 20.8383 17.7339H23.5031C24.3348 17.7339 25.0114 18.3303 25.0114 19.0634V33.0783C25.0114 33.8114 24.3348 34.4078 23.5031 34.4078ZM20.8383 18.9079C20.6227 18.9079 20.5041 19.0247 20.5041 19.0634V33.0783C20.5041 33.1171 20.6227 33.2338 20.8383 33.2338H23.5031C23.7188 33.2338 23.8374 33.1171 23.8374 33.0783V19.0634C23.8374 19.0247 23.7188 18.9079 23.5031 18.9079H20.8383Z" fill="white" stroke="white"/>
</g>
<g id="Group_13">
<path id="Vector_11" d="M32.6672 34.4077H30.0022C29.1707 34.4077 28.4941 33.6748 28.4941 32.7739V13.0147C28.4941 12.1138 29.1707 11.3809 30.0022 11.3809H32.6672C33.4988 11.3809 34.1754 12.1138 34.1754 13.0147V32.7739C34.1754 33.6748 33.4988 34.4077 32.6672 34.4077ZM30.0022 12.5549C29.8211 12.5549 29.6681 12.7654 29.6681 13.0147V32.7739C29.6681 33.0232 29.8211 33.2337 30.0022 33.2337H32.6672C32.8484 33.2337 33.0014 33.0232 33.0014 32.7739V13.0147C33.0014 12.7654 32.8484 12.5549 32.6672 12.5549L30.0022 12.5549Z" fill="white" stroke="white"/>
</g>
</g>
</g>
</svg>
