<svg width="39" height="39" viewBox="0 0 39 39" fill="none" xmlns="http://www.w3.org/2000/svg">
<path id="Vector" d="M28.25 19.0617L27.1562 34.2277M28.25 19.0617C28.25 10.5309 24.9687 5.7915 19.4998 2C14.0312 5.7915 10.75 10.5309 10.75 19.0617M28.25 19.0617L32.625 21.9054C35.3791 23.6955 37 26.5048 37 29.4884V35.1021C37 36.474 35.3705 37.3917 33.9242 36.8344L27.1562 34.2277M27.1562 34.2277H11.8438M10.75 19.0617L11.8438 34.2277M10.75 19.0617L6.375 21.9054C3.62087 23.6955 2 26.5048 2 29.4884V35.1021C2 36.474 3.62936 37.3917 5.07593 36.8344L11.8438 34.2277M19.5 15.2702V19.0617" stroke="white" stroke-width="3" stroke-linecap="round" stroke-linejoin="round"/>
</svg>
